<svg xmlns="http://www.w3.org/2000/svg" xmlns:xlink="http://www.w3.org/1999/xlink" version="1.1" baseProfile="full" width="718" height="736" style="position: absolute; left: 0px; top: 0px; user-select: none;"><rect width="718" height="736" x="0" y="0" fill="none"></rect><g><path d="M49.52 694.5L689.28 694.5" fill="none" stroke="#dbdee4"></path><path d="M49.52 589.5L689.28 589.5" fill="none" stroke="#dbdee4"></path><path d="M49.52 484.5L689.28 484.5" fill="none" stroke="#dbdee4"></path><path d="M49.52 379.5L689.28 379.5" fill="none" stroke="#dbdee4"></path><path d="M49.52 274.5L689.28 274.5" fill="none" stroke="#dbdee4"></path><path d="M49.52 170.5L689.28 170.5" fill="none" stroke="#dbdee4"></path><path d="M49.52 65.5L689.28 65.5" fill="none" stroke="#dbdee4"></path><path d="M49.52 694.5L689.28 694.5" fill="none" stroke="#54555a" stroke-linecap="round"></path><text dominant-baseline="central" text-anchor="end" transform="translate(41.52 693.92)" fill="#54555a" style="font-size: 12px; font-family: &quot;Microsoft YaHei&quot;;">0</text><text dominant-baseline="central" text-anchor="end" transform="translate(41.52 589.1)" fill="#54555a" style="font-size: 12px; font-family: &quot;Microsoft YaHei&quot;;">100</text><text dominant-baseline="central" text-anchor="end" transform="translate(41.52 484.28)" fill="#54555a" style="font-size: 12px; font-family: &quot;Microsoft YaHei&quot;;">200</text><text dominant-baseline="central" text-anchor="end" transform="translate(41.52 379.46)" fill="#54555a" style="font-size: 12px; font-family: &quot;Microsoft YaHei&quot;;">300</text><text dominant-baseline="central" text-anchor="end" transform="translate(41.52 274.64)" fill="#54555a" style="font-size: 12px; font-family: &quot;Microsoft YaHei&quot;;">400</text><text dominant-baseline="central" text-anchor="end" transform="translate(41.52 169.82)" fill="#54555a" style="font-size: 12px; font-family: &quot;Microsoft YaHei&quot;;">500</text><text dominant-baseline="central" text-anchor="end" transform="translate(41.52 65)" fill="#54555a" style="font-size: 12px; font-family: &quot;Microsoft YaHei&quot;;">600</text><text dominant-baseline="central" text-anchor="middle" y="6" transform="translate(95.2171 701.92)" fill="#54555a" style="font-size: 12px; font-family: &quot;Microsoft YaHei&quot;;">Mon</text><text dominant-baseline="central" text-anchor="middle" y="6" transform="translate(186.6114 701.92)" fill="#54555a" style="font-size: 12px; font-family: &quot;Microsoft YaHei&quot;;">Tue</text><text dominant-baseline="central" text-anchor="middle" y="6" transform="translate(278.0057 701.92)" fill="#54555a" style="font-size: 12px; font-family: &quot;Microsoft YaHei&quot;;">Wed</text><text dominant-baseline="central" text-anchor="middle" y="6" transform="translate(369.4 701.92)" fill="#54555a" style="font-size: 12px; font-family: &quot;Microsoft YaHei&quot;;">Thu</text><text dominant-baseline="central" text-anchor="middle" y="6" transform="translate(460.7943 701.92)" fill="#54555a" style="font-size: 12px; font-family: &quot;Microsoft YaHei&quot;;">Fri</text><text dominant-baseline="central" text-anchor="middle" y="6" transform="translate(552.1886 701.92)" fill="#54555a" style="font-size: 12px; font-family: &quot;Microsoft YaHei&quot;;">Sat</text><text dominant-baseline="central" text-anchor="middle" y="6" transform="translate(643.5829 701.92)" fill="#54555a" style="font-size: 12px; font-family: &quot;Microsoft YaHei&quot;;">Sun</text><g clip-path="url(#zr0-c0)"><path d="M95.2171 568.136L95.2171 555.5576L186.6114 555.5576L186.6114 588.0518L278.0057 588.0518L278.0057 553.4612L369.4 553.4612L369.4 599.582L460.7943 599.582L460.7943 452.834L552.1885 452.834L552.1885 473.798L643.5828 473.798" fill="none" stroke="#5070dd" stroke-width="2" stroke-linejoin="bevel"></path></g><g clip-path="url(#zr0-c1)"><path d="M95.2171 463.316L140.9143 463.316L140.9143 398.3276L186.6114 398.3276L232.3086 398.3276L232.3086 483.2318L278.0057 483.2318L323.7029 483.2318L323.7029 448.6412L369.4 448.6412L415.0971 448.6412L415.0971 389.942L460.7943 389.942L506.4914 389.942L506.4914 243.194L552.1885 243.194L597.8857 243.194L597.8857 264.158L643.5828 264.158" fill="none" stroke="#b6d634" stroke-width="2" stroke-linejoin="bevel"></path></g><g clip-path="url(#zr0-c2)"><path d="M95.2171 222.23L186.6114 222.23L186.6114 241.0976L278.0057 241.0976L278.0057 273.5918L369.4 273.5918L369.4 218.0372L460.7943 218.0372L460.7943 75.482L552.1885 75.482L552.1885 138.374L643.5828 138.374L643.5828 159.338" fill="none" stroke="#505372" stroke-width="2" stroke-linejoin="bevel"></path></g><path d="M1 0A1 1 0 1 1 1 -0.0001" transform="matrix(3,0,0,3,95.2171,568.136)" fill="#fff" stroke="#5070dd" stroke-width="0.6666666666666666"></path><path d="M1 0A1 1 0 1 1 1 -0.0001" transform="matrix(3,0,0,3,186.6114,555.5576)" fill="#fff" stroke="#5070dd" stroke-width="0.6666666666666666"></path><path d="M1 0A1 1 0 1 1 1 -0.0001" transform="matrix(3,0,0,3,278.0057,588.0518)" fill="#fff" stroke="#5070dd" stroke-width="0.6666666666666666"></path><path d="M1 0A1 1 0 1 1 1 -0.0001" transform="matrix(3,0,0,3,369.4,553.4612)" fill="#fff" stroke="#5070dd" stroke-width="0.6666666666666666"></path><path d="M1 0A1 1 0 1 1 1 -0.0001" transform="matrix(3,0,0,3,460.7943,599.582)" fill="#fff" stroke="#5070dd" stroke-width="0.6666666666666666"></path><path d="M1 0A1 1 0 1 1 1 -0.0001" transform="matrix(3,0,0,3,552.1885,452.834)" fill="#fff" stroke="#5070dd" stroke-width="0.6666666666666666"></path><path d="M1 0A1 1 0 1 1 1 -0.0001" transform="matrix(3,0,0,3,643.5828,473.798)" fill="#fff" stroke="#5070dd" stroke-width="0.6666666666666666"></path><path d="M1 0A1 1 0 1 1 1 -0.0001" transform="matrix(3,0,0,3,95.2171,463.316)" fill="#fff" stroke="#b6d634" stroke-width="0.6666666666666666"></path><path d="M1 0A1 1 0 1 1 1 -0.0001" transform="matrix(3,0,0,3,186.6114,398.3276)" fill="#fff" stroke="#b6d634" stroke-width="0.6666666666666666"></path><path d="M1 0A1 1 0 1 1 1 -0.0001" transform="matrix(3,0,0,3,278.0057,483.2318)" fill="#fff" stroke="#b6d634" stroke-width="0.6666666666666666"></path><path d="M1 0A1 1 0 1 1 1 -0.0001" transform="matrix(3,0,0,3,369.4,448.6412)" fill="#fff" stroke="#b6d634" stroke-width="0.6666666666666666"></path><path d="M1 0A1 1 0 1 1 1 -0.0001" transform="matrix(3,0,0,3,460.7943,389.942)" fill="#fff" stroke="#b6d634" stroke-width="0.6666666666666666"></path><path d="M1 0A1 1 0 1 1 1 -0.0001" transform="matrix(3,0,0,3,552.1885,243.194)" fill="#fff" stroke="#b6d634" stroke-width="0.6666666666666666"></path><path d="M1 0A1 1 0 1 1 1 -0.0001" transform="matrix(3,0,0,3,643.5828,264.158)" fill="#fff" stroke="#b6d634" stroke-width="0.6666666666666666"></path><path d="M1 0A1 1 0 1 1 1 -0.0001" transform="matrix(3,0,0,3,95.2171,222.23)" fill="#fff" stroke="#505372" stroke-width="0.6666666666666666"></path><path d="M1 0A1 1 0 1 1 1 -0.0001" transform="matrix(3,0,0,3,186.6114,241.0976)" fill="#fff" stroke="#505372" stroke-width="0.6666666666666666"></path><path d="M1 0A1 1 0 1 1 1 -0.0001" transform="matrix(3,0,0,3,278.0057,273.5918)" fill="#fff" stroke="#505372" stroke-width="0.6666666666666666"></path><path d="M1 0A1 1 0 1 1 1 -0.0001" transform="matrix(3,0,0,3,369.4,218.0372)" fill="#fff" stroke="#505372" stroke-width="0.6666666666666666"></path><path d="M1 0A1 1 0 1 1 1 -0.0001" transform="matrix(3,0,0,3,460.7943,75.482)" fill="#fff" stroke="#505372" stroke-width="0.6666666666666666"></path><path d="M1 0A1 1 0 1 1 1 -0.0001" transform="matrix(3,0,0,3,552.1885,138.374)" fill="#fff" stroke="#505372" stroke-width="0.6666666666666666"></path><path d="M1 0A1 1 0 1 1 1 -0.0001" transform="matrix(3,0,0,3,643.5828,159.338)" fill="#fff" stroke="#505372" stroke-width="0.6666666666666666"></path><path d="M-5 -5l294.6934 0l0 23.2l-294.6934 0Z" transform="translate(216.6533 702.8)" fill="rgb(0,0,0)" fill-opacity="0" stroke="#b7b9be" stroke-width="0"></path><path d="M0 7L25 7" transform="translate(217.6533 702.4)" fill="#000" stroke="#5070dd" stroke-width="2" stroke-linecap="butt" stroke-miterlimit="10"></path><path d="M18.1 7A5.6 5.6 0 1 1 18.1 6.9994" transform="translate(217.6533 702.4)" fill="#fff" stroke="#5070dd" stroke-width="2" stroke-linecap="butt" stroke-miterlimit="10"></path><text dominant-baseline="central" text-anchor="start" xml:space="preserve" x="30" y="7" transform="translate(217.6533 702.4)" fill="#54555a" style="font-size: 12px; font-family: &quot;Microsoft YaHei&quot;;">Step Start</text><path d="M-1 0.4l86.9453 0l0 13.2l-86.9453 0Z" transform="translate(217.6533 702.4)" fill="none"></path><path d="M0 7L25 7" transform="translate(312.5986 702.4)" fill="#000" stroke="#b6d634" stroke-width="2" stroke-linecap="butt" stroke-miterlimit="10"></path><path d="M18.1 7A5.6 5.6 0 1 1 18.1 6.9994" transform="translate(312.5986 702.4)" fill="#fff" stroke="#b6d634" stroke-width="2" stroke-linecap="butt" stroke-miterlimit="10"></path><text dominant-baseline="central" text-anchor="start" xml:space="preserve" x="30" y="7" transform="translate(312.5986 702.4)" fill="#54555a" style="font-size: 12px; font-family: &quot;Microsoft YaHei&quot;;">Step Middle</text><path d="M-1 0.4l100.1758 0l0 13.2l-100.1758 0Z" transform="translate(312.5986 702.4)" fill="none"></path><path d="M0 7L25 7" transform="translate(420.7744 702.4)" fill="#000" stroke="#505372" stroke-width="2" stroke-linecap="butt" stroke-miterlimit="10"></path><path d="M18.1 7A5.6 5.6 0 1 1 18.1 6.9994" transform="translate(420.7744 702.4)" fill="#fff" stroke="#505372" stroke-width="2" stroke-linecap="butt" stroke-miterlimit="10"></path><text dominant-baseline="central" text-anchor="start" xml:space="preserve" x="30" y="7" transform="translate(420.7744 702.4)" fill="#54555a" style="font-size: 12px; font-family: &quot;Microsoft YaHei&quot;;">Step End</text><path d="M-1 0.4l81.5723 0l0 13.2l-81.5723 0Z" transform="translate(420.7744 702.4)" fill="none"></path><path d="M-23.9784 -25l47.9569 0l0 50l-47.9569 0Z" transform="translate(694.0216 25)" fill="none" stroke="#b7b9be" stroke-width="0"></path><path d="M-46.4185 -5l92.8369 0l0 28l-92.8369 0Z" transform="translate(359 20)" fill="rgb(0,0,0)" fill-opacity="0" stroke="#3c3c41" stroke-width="0"></path><path d="M-6.4526 -1.5776L-0.0905 4.2672L6.4784 -1.4483M-6.4784 3.7759L-6.4784 7.5L6.2457 7.5L6.2457 3.7759M-0.1164 4.1638L-0.1164 -7.5" transform="translate(694.0216 25)" fill="none" stroke="#6578ba"></path><text dominant-baseline="central" text-anchor="middle" xml:space="preserve" y="9" transform="translate(359 20)" fill="#3c3c41" style="font-size: 18px; font-family: &quot;Microsoft YaHei&quot;; font-weight: bold;">Step Line</text></g><defs><clipPath id="zr0-c0"><path d="M48 64l643 0l0 630.92l-643 0Z" fill="#000"></path></clipPath><clipPath id="zr0-c1"><path d="M48 64l643 0l0 630.92l-643 0Z" fill="#000"></path></clipPath><clipPath id="zr0-c2"><path d="M48 64l643 0l0 630.92l-643 0Z" fill="#000"></path></clipPath></defs></svg>
