<?plantuml 1.2026.2?><svg xmlns="http://www.w3.org/2000/svg" xmlns:xlink="http://www.w3.org/1999/xlink" contentStyleType="text/css" data-diagram-type="ACTIVITY" height="294px" preserveAspectRatio="none" style="width:464px;height:294px;background:#FFFFFF;" version="1.1" viewBox="0 0 464 294" width="464px" zoomAndPan="magnify"><defs/><g><ellipse cx="232.0042" cy="20" fill="#222222" rx="10" ry="10" style="stroke:#222222;stroke-width:1;"/><rect fill="#F1F1F1" height="33.9688" rx="12.5" ry="12.5" style="stroke:#181818;stroke-width:0.5;" width="125.3867" x="169.3108" y="50"/><text fill="#000000" font-family="sans-serif" font-size="12" lengthAdjust="spacing" textLength="105.3867" x="179.3108" y="71.1387">Receive webhook</text><polygon fill="#F1F1F1" points="199.3855,103.9688,264.6228,103.9688,276.6228,115.9688,264.6228,127.9688,199.3855,127.9688,187.3855,115.9688,199.3855,103.9688" style="stroke:#181818;stroke-width:0.5;"/><text fill="#000000" font-family="sans-serif" font-size="11" lengthAdjust="spacing" textLength="65.2373" x="199.3855" y="119.7769">event type?</text><rect fill="#F1F1F1" height="33.9688" rx="12.5" ry="12.5" style="stroke:#181818;stroke-width:0.5;" width="125.8379" x="11" y="163.5781"/><text fill="#000000" font-family="sans-serif" font-size="12" lengthAdjust="spacing" textLength="105.8379" x="21" y="184.7168">Mark invoice paid</text><rect fill="#F1F1F1" height="33.9688" rx="12.5" ry="12.5" style="stroke:#181818;stroke-width:0.5;" width="116.0059" x="205.4819" y="163.5781"/><text fill="#000000" font-family="sans-serif" font-size="12" lengthAdjust="spacing" textLength="96.0059" x="215.4819" y="184.7168">Notify customer</text><rect fill="#F1F1F1" height="33.9688" rx="12.5" ry="12.5" style="stroke:#181818;stroke-width:0.5;" width="96.4121" x="356.5962" y="163.5781"/><text fill="#000000" font-family="sans-serif" font-size="12" lengthAdjust="spacing" textLength="76.4121" x="366.5962" y="184.7168">Ignore event</text><polygon fill="#F1F1F1" points="232.0042,217.5469,244.0042,229.5469,232.0042,241.5469,220.0042,229.5469,232.0042,217.5469" style="stroke:#181818;stroke-width:0.5;"/><ellipse cx="232.0042" cy="272.5469" fill="none" rx="11" ry="11" style="stroke:#222222;stroke-width:1;"/><ellipse cx="232.0042" cy="272.5469" fill="#222222" rx="6" ry="6" style="stroke:#222222;stroke-width:1;"/><line style="stroke:#181818;stroke-width:1;" x1="232.0042" x2="232.0042" y1="30" y2="50"/><polygon fill="#181818" points="228.0042,40,232.0042,50,236.0042,40,232.0042,44" style="stroke:#181818;stroke-width:1;"/><line style="stroke:#181818;stroke-width:1;" x1="187.3855" x2="73.9189" y1="115.9688" y2="115.9688"/><line style="stroke:#181818;stroke-width:1;" x1="73.9189" x2="73.9189" y1="115.9688" y2="163.5781"/><polygon fill="#181818" points="69.9189,153.5781,73.9189,163.5781,77.9189,153.5781,73.9189,157.5781" style="stroke:#181818;stroke-width:1;"/><text fill="#000000" font-family="sans-serif" font-size="11" lengthAdjust="spacing" text-anchor="start" textLength="111.563" x="73.9189" y="143.3862">payment.succeeded</text><line style="stroke:#181818;stroke-width:1;" x1="232.0042" x2="232.0042" y1="127.9688" y2="139.9688"/><line style="stroke:#181818;stroke-width:1;" x1="232.0042" x2="263.4849" y1="139.9688" y2="139.9688"/><line style="stroke:#181818;stroke-width:1;" x1="263.4849" x2="263.4849" y1="139.9688" y2="163.5781"/><polygon fill="#181818" points="259.4849,153.5781,263.4849,163.5781,267.4849,153.5781,263.4849,157.5781" style="stroke:#181818;stroke-width:1;"/><text fill="#000000" font-family="sans-serif" font-size="11" lengthAdjust="spacing" text-anchor="start" textLength="73.1113" x="263.4849" y="143.3862">invoice.failed</text><line style="stroke:#181818;stroke-width:1;" x1="276.6228" x2="404.8022" y1="115.9688" y2="115.9688"/><line style="stroke:#181818;stroke-width:1;" x1="404.8022" x2="404.8022" y1="115.9688" y2="163.5781"/><polygon fill="#181818" points="400.8022,153.5781,404.8022,163.5781,408.8022,153.5781,404.8022,157.5781" style="stroke:#181818;stroke-width:1;"/><text fill="#000000" font-family="sans-serif" font-size="11" lengthAdjust="spacing" text-anchor="start" textLength="29.3047" x="404.8022" y="143.3862">other</text><line style="stroke:#181818;stroke-width:1;" x1="73.9189" x2="73.9189" y1="197.5469" y2="229.5469"/><line style="stroke:#181818;stroke-width:1;" x1="73.9189" x2="220.0042" y1="229.5469" y2="229.5469"/><polygon fill="#181818" points="210.0042,225.5469,220.0042,229.5469,210.0042,233.5469,214.0042,229.5469" style="stroke:#181818;stroke-width:1;"/><line style="stroke:#181818;stroke-width:1;" x1="263.4849" x2="263.4849" y1="197.5469" y2="202.5469"/><line style="stroke:#181818;stroke-width:1;" x1="263.4849" x2="232.0042" y1="202.5469" y2="202.5469"/><line style="stroke:#181818;stroke-width:1;" x1="232.0042" x2="232.0042" y1="202.5469" y2="217.5469"/><polygon fill="#181818" points="228.0042,207.5469,232.0042,217.5469,236.0042,207.5469,232.0042,211.5469" style="stroke:#181818;stroke-width:1;"/><line style="stroke:#181818;stroke-width:1;" x1="404.8022" x2="404.8022" y1="197.5469" y2="229.5469"/><line style="stroke:#181818;stroke-width:1;" x1="404.8022" x2="244.0042" y1="229.5469" y2="229.5469"/><polygon fill="#181818" points="254.0042,225.5469,244.0042,229.5469,254.0042,233.5469,250.0042,229.5469" style="stroke:#181818;stroke-width:1;"/><line style="stroke:#181818;stroke-width:1;" x1="232.0042" x2="232.0042" y1="241.5469" y2="261.5469"/><polygon fill="#181818" points="228.0042,251.5469,232.0042,261.5469,236.0042,251.5469,232.0042,255.5469" style="stroke:#181818;stroke-width:1;"/><line style="stroke:#181818;stroke-width:1;" x1="232.0042" x2="232.0042" y1="83.9688" y2="103.9688"/><polygon fill="#181818" points="228.0042,93.9688,232.0042,103.9688,236.0042,93.9688,232.0042,97.9688" style="stroke:#181818;stroke-width:1;"/><?plantuml-src DSun3eCm44JHtgVO4XeE04Ng54cH6pZh8Qm8NijUGDm-Y43xzQIPOZwRQrzWo09QyHvKnywLLOm7gh0W6jcMSAiT-mAgaj-cFJPbPWO2Gks8seVF8qbSL1YKl8Jkv6ThUY_VqpxLfD-8vs8w8LzIRK0-mFqJDOEEySuXXlyTj_lq0m00?></g></svg>